<svg xmlns="http://www.w3.org/2000/svg" xmlns:xlink="http://www.w3.org/1999/xlink" version="1.1" id="Camada_1" x="0px" y="0px" viewBox="0 0 550 350" style="enable-background:new 0 0 550 350;/* background: #000; */" xml:space="preserve">
<style type="text/css">
	.st0{fill:#FFFFFF;}
</style>
<title>Prancheta 1 cópia 6</title>
<path class="st0" d="M270.6,98.4L357.2,75l8.7-47l-91.9,39.6c-12.7,5.7-26.3,8.3-40.3,8.3h-11.3l-11,25.6h32.3  C252.9,101.7,261.9,100.7,270.6,98.4z"/>
<path class="st0" d="M197.6,135h63.3l84.3,4.3l8.3-46.3l-86.6,15.3c-5.7,1-11.7,1.7-17.7,1.7h-41L197.6,135z"/>
<path class="st0" d="M249.3,143.3h-55l-11,25.6h58c15.3,0,30.6,2.3,45.3,6.7l49.3,15l6-33.3l-67.6-12  C266.3,144.7,257.6,143.7,249.3,143.3z"/>
</svg>